<svg width="74" height="74" viewBox="0 0 74 74" fill="none" xmlns="http://www.w3.org/2000/svg">
<path d="M61.795 48.2006L40.7477 53.8994C40.2203 54.0423 39.6795 54.127 39.1364 54.1546C39.7664 53.6832 40.2937 53.0576 40.6573 52.3028C41.2569 51.0562 41.3235 49.655 40.8425 48.357C40.3626 47.0596 39.3994 46.0394 38.1325 45.4844L27.9589 41.0266C25.171 39.8042 22.0207 39.5863 19.0917 40.4117L14.7422 41.6365V41.625C14.7422 39.8714 13.3161 38.4453 11.5625 38.4453H6.9375C5.18393 38.4453 3.75781 39.8714 3.75781 41.625V67.0625C3.75781 68.8161 5.18393 70.2422 6.9375 70.2422H11.5625C13.3161 70.2422 14.7422 68.8161 14.7422 67.0625V66.7734H19.169C20.1937 66.7734 21.2196 66.8903 22.2194 67.1212L32.5715 69.5099C33.411 69.7036 34.2624 69.8001 35.1115 69.8001C36.4676 69.8001 37.8175 69.554 39.1036 69.0656L65.3338 59.1167C68.2063 58.027 69.7104 54.8863 68.7585 51.9658C67.81 49.0548 64.7489 47.4023 61.795 48.2006ZM13.0078 67.0625C13.0078 67.8597 12.3597 68.5078 11.5625 68.5078H6.9375C6.14032 68.5078 5.49219 67.8597 5.49219 67.0625V41.625C5.49219 40.8278 6.14032 40.1797 6.9375 40.1797H11.5625C12.3597 40.1797 13.0078 40.8278 13.0078 41.625V67.0625ZM64.7195 57.4952L38.4893 67.4442C36.7171 68.1171 34.8072 68.2464 32.961 67.8196L22.609 65.4309C21.4821 65.1712 20.3247 65.0391 19.169 65.0391H14.7422V43.4379L19.5614 42.0812C22.1076 41.3642 24.8424 41.5539 27.2633 42.6153L37.437 47.0732C38.2692 47.4373 38.9004 48.1075 39.2165 48.9594C39.5316 49.8113 39.4886 50.7322 39.0946 51.5508C38.329 53.1384 36.4541 53.8497 34.8292 53.174L24.6149 48.9182C24.1729 48.7353 23.6647 48.943 23.4807 49.3851C23.2966 49.8271 23.5055 50.3353 23.9476 50.5193L35.1273 55.1776C37.0429 55.9759 39.1996 56.1165 41.2016 55.574L62.2489 49.8751C64.3062 49.3156 66.4471 50.4708 67.1099 52.5032C67.7739 54.5419 66.7238 56.7347 64.7195 57.4952ZM65.9062 3.75781H35.8438C33.4528 3.75781 31.5078 5.70277 31.5078 8.09375V35.8438C31.5078 38.2347 33.4528 40.1797 35.8438 40.1797H65.9062C68.2967 40.1797 70.2422 38.2347 70.2422 35.8438V8.09375C70.2422 5.70277 68.2967 3.75781 65.9062 3.75781ZM54.6328 5.49219V13.875C54.6328 14.6722 53.9847 15.3203 53.1875 15.3203H48.5625C47.7653 15.3203 47.1172 14.6722 47.1172 13.875V5.49219H54.6328ZM68.5078 35.8438C68.5078 37.2783 67.3403 38.4453 65.9062 38.4453H35.8438C34.4092 38.4453 33.2422 37.2783 33.2422 35.8438V8.09375C33.2422 6.65916 34.4092 5.49219 35.8438 5.49219H45.3828V13.875C45.3828 15.6286 46.8089 17.0547 48.5625 17.0547H53.1875C54.9411 17.0547 56.3672 15.6286 56.3672 13.875V5.49219H65.9062C67.3403 5.49219 68.5078 6.65916 68.5078 8.09375V35.8438ZM51.7422 32.375C51.7422 32.8538 51.3538 33.2422 50.875 33.2422H39.3125C38.8337 33.2422 38.4453 32.8538 38.4453 32.375C38.4453 31.8962 38.8337 31.5078 39.3125 31.5078H50.875C51.3538 31.5078 51.7422 31.8962 51.7422 32.375ZM38.4453 26.5938C38.4453 26.115 38.8337 25.7266 39.3125 25.7266H46.25C46.7288 25.7266 47.1172 26.115 47.1172 26.5938C47.1172 27.0725 46.7288 27.4609 46.25 27.4609H39.3125C38.8337 27.4609 38.4453 27.0725 38.4453 26.5938Z" fill="#FF9C26"/>
</svg>
