<svg width="74" height="74" viewBox="0 0 74 74" fill="none" xmlns="http://www.w3.org/2000/svg">
<path d="M5.16809 22.5819C4.82931 22.2431 4.82931 21.6944 5.16809 21.3557L15.9131 10.6107C16.7024 9.82142 17.9851 9.82142 18.7744 10.6107L24.0768 15.9131C24.1898 16.0261 24.3727 16.0261 24.4856 15.9131L34.9065 5.49219H29.5177C29.0389 5.49219 28.6505 5.1038 28.6505 4.625C28.6505 4.1462 29.0389 3.75781 29.5177 3.75781H35.8438C36.9593 3.75781 37.8672 4.6657 37.8672 5.78125V12.1073C37.8672 12.5861 37.4788 12.9745 37 12.9745C36.5212 12.9745 36.1328 12.5861 36.1328 12.1073V6.71851L25.7119 17.1394C24.9226 17.9287 23.6399 17.9287 22.8506 17.1394L17.5482 11.837C17.4003 11.6902 17.2873 11.6902 17.1394 11.837L6.39441 22.582C6.22502 22.7514 6.00313 22.8361 5.78125 22.8361C5.55937 22.8361 5.33748 22.7513 5.16809 22.5819ZM70.2422 46.25C70.2422 59.4791 59.4791 70.2422 46.25 70.2422H9.25C6.22167 70.2422 3.75781 67.7783 3.75781 64.75V32.375C3.75781 29.3467 6.22167 26.8828 9.25 26.8828H32.1477C36.1117 23.9883 40.9769 22.2578 46.25 22.2578C59.4791 22.2578 70.2422 33.0209 70.2422 46.25ZM5.49219 32.375V38.4014C10.6979 37.9806 14.8556 33.8229 15.2764 28.6172H9.25C7.178 28.6172 5.49219 30.303 5.49219 32.375ZM9.25 68.5078H15.2764C14.8556 63.3021 10.6979 59.1444 5.49219 58.7236V64.75C5.49219 66.822 7.178 68.5078 9.25 68.5078ZM37.3403 68.5078C28.5138 64.9612 22.2578 56.3295 22.2578 46.25C22.2578 39.2749 25.2682 33.005 30.0364 28.6172H17.0107C16.5824 34.7786 11.6536 39.7074 5.49219 40.1358V56.9891C11.6536 57.4175 16.5824 62.3463 17.0107 68.5077L37.3403 68.5078ZM68.5078 46.25C68.5078 33.9772 58.5228 23.9922 46.25 23.9922C33.9772 23.9922 23.9922 33.9772 23.9922 46.25C23.9922 58.5228 33.9772 68.5078 46.25 68.5078C58.5228 68.5078 68.5078 58.5228 68.5078 46.25ZM65.6172 46.25C65.6172 56.9289 56.9289 65.6172 46.25 65.6172C35.5711 65.6172 26.8828 56.9289 26.8828 46.25C26.8828 35.5711 35.5711 26.8828 46.25 26.8828C56.9289 26.8828 65.6172 35.5711 65.6172 46.25ZM63.8828 46.25C63.8828 36.5274 55.9726 28.6172 46.25 28.6172C36.5274 28.6172 28.6172 36.5274 28.6172 46.25C28.6172 55.9726 36.5274 63.8828 46.25 63.8828C55.9726 63.8828 63.8828 55.9726 63.8828 46.25ZM53.1887 40.9791C53.353 41.4291 53.1209 41.9264 52.6704 42.0902C52.2221 42.2533 51.7231 42.0224 51.5594 41.5719C51.1963 40.5761 50.796 40.0606 49.9096 39.4514C49.2243 38.9815 48.3241 38.7073 47.2443 38.6145V45.445C49.1388 45.8287 52.7674 46.7641 52.6145 50.5233C52.5022 53.2717 50.5144 55.0161 47.2443 55.3517V57.8125C47.2443 58.2913 46.8559 58.6797 46.3771 58.6797C45.8983 58.6797 45.5099 58.2913 45.5099 57.8125V55.3902C43.9525 55.3142 42.6328 54.9394 41.6081 54.237C40.4208 53.4201 39.7987 52.619 39.3115 51.2792C39.1472 50.8292 39.3792 50.3319 39.8297 50.1682C40.2791 50.005 40.777 50.2365 40.9407 50.6864C41.3038 51.6823 41.7041 52.1978 42.5905 52.807C43.3279 53.3131 44.3172 53.5894 45.5099 53.658V46.8633C43.7312 46.5127 39.8245 45.6758 39.8851 41.7565C39.9292 38.923 42.0225 37.1591 45.5099 36.8913V34.6874C45.5099 34.2086 45.8983 33.8202 46.3771 33.8202C46.8559 33.8202 47.2443 34.2086 47.2443 34.6874V36.8831C48.6898 36.9877 49.9234 37.3576 50.8914 38.0212C52.0792 38.8381 52.7014 39.6394 53.1887 40.9791ZM45.5099 45.089V38.6118C43.5865 38.7713 41.6549 39.4985 41.6194 41.7836C41.5858 43.9672 43.5361 44.6674 45.5099 45.089ZM47.2443 47.2221V53.6176C48.8955 53.4171 50.7899 52.6969 50.8812 50.4526C50.9657 48.3788 49.1555 47.6515 47.2443 47.2221Z" fill="#FF9C26"/>
</svg>
