<svg width="74" height="74" viewBox="0 0 74 74" fill="none" xmlns="http://www.w3.org/2000/svg">
<path d="M64.75 29.1954H60.9922V25.4376C60.9922 24.5943 60.6572 23.7855 60.0609 23.1892C59.4646 22.5929 58.6558 22.2579 57.8125 22.2579H40.7694C41.1449 20.4825 41.3348 18.6729 41.3359 16.8582V11.4701C41.3374 10.9616 41.1461 10.4714 40.8008 10.0981C40.4554 9.72483 39.9815 9.49621 39.4744 9.45822C35.3112 9.15677 31.2352 8.11525 27.4378 6.38259C27.1741 6.2572 26.8858 6.19214 26.5938 6.19214C26.3017 6.19214 26.0134 6.2572 25.7497 6.38259C21.9569 8.11674 17.8844 9.15836 13.7247 9.45822C13.2176 9.49621 12.7437 9.72483 12.3983 10.0981C12.0529 10.4714 11.8617 10.9616 11.8631 11.4701V16.8582C11.8643 18.6729 12.0542 20.4825 12.4297 22.2579H9.25C8.40669 22.2579 7.59793 22.5929 7.00162 23.1892C6.40531 23.7855 6.07031 24.5943 6.07031 25.4376V57.8126C6.07031 58.6559 6.40531 59.4647 7.00162 60.061C7.59793 60.6573 8.40669 60.9923 9.25 60.9923H13.0078V64.7501C13.0078 65.5934 13.3428 66.4022 13.9391 66.9985C14.5354 67.5948 15.3442 67.9298 16.1875 67.9298H64.75C65.5933 67.9298 66.4021 67.5948 66.9984 66.9985C67.5947 66.4022 67.9297 65.5934 67.9297 64.7501V32.3751C67.9297 31.5318 67.5947 30.723 66.9984 30.1267C66.4021 29.5304 65.5933 29.1954 64.75 29.1954ZM37.185 30.9298H59.2578V33.8204H34.9766C35.779 32.9094 36.5169 31.9435 37.185 30.9298ZM57.8125 23.9923C58.1958 23.9923 58.5634 24.1446 58.8345 24.4156C59.1055 24.6866 59.2578 25.0543 59.2578 25.4376V29.1954H38.2141C39.11 27.5434 39.8234 25.7987 40.3416 23.9923H57.8125ZM13.5859 11.4701C13.5859 11.4327 13.5934 11.3956 13.6081 11.3612C13.6228 11.3267 13.6443 11.2956 13.6713 11.2697C13.6983 11.2437 13.7302 11.2235 13.7653 11.2103C13.8003 11.1971 13.8376 11.191 13.875 11.1926C18.2343 10.8664 22.5013 9.7703 26.4781 7.95509C26.5142 7.93768 26.5537 7.92864 26.5938 7.92864C26.6338 7.92864 26.6733 7.93768 26.7094 7.95509C30.6862 9.7703 34.9532 10.8664 39.3125 11.1926C39.3861 11.1926 39.4567 11.2218 39.5087 11.2739C39.5608 11.3259 39.59 11.3965 39.59 11.4701V16.8582C39.5969 21.2564 38.4044 25.5733 36.141 29.3443C33.8775 33.1154 30.6287 36.198 26.7441 38.2604C26.6992 38.2828 26.6497 38.2945 26.5995 38.2945C26.5494 38.2945 26.4999 38.2828 26.455 38.2604C22.5652 36.2021 19.311 33.121 17.0432 29.3495C14.7754 25.578 13.58 21.259 13.5859 16.8582V11.4701ZM7.80469 30.9298H16.0025C16.6557 31.942 17.3782 32.9079 18.1647 33.8204H7.75844L7.80469 30.9298ZM9.25 23.9923H12.8459C13.3826 25.8011 14.1154 27.5458 15.0312 29.1954H7.80469V25.4376C7.80469 25.0543 7.95696 24.6866 8.22801 24.4156C8.49906 24.1446 8.86668 23.9923 9.25 23.9923ZM7.80469 57.8126V35.5548H19.795C21.5359 37.2323 23.5009 38.6604 25.6341 39.7982C25.9311 39.9504 26.26 40.0298 26.5938 40.0298C26.9275 40.0298 27.2564 39.9504 27.5534 39.7982C29.6884 38.6633 31.6539 37.235 33.3925 35.5548H59.2578V57.8126C59.2578 58.1959 59.1055 58.5635 58.8345 58.8346C58.5634 59.1056 58.1958 59.2579 57.8125 59.2579H9.25C8.86668 59.2579 8.49906 59.1056 8.22801 58.8346C7.95696 58.5635 7.80469 58.1959 7.80469 57.8126ZM66.1953 64.7501C66.1953 65.1334 66.043 65.501 65.772 65.7721C65.5009 66.0431 65.1333 66.1954 64.75 66.1954H16.1875C15.8042 66.1954 15.4366 66.0431 15.1655 65.7721C14.8945 65.501 14.7422 65.1334 14.7422 64.7501V60.9923H57.8125C58.6558 60.9923 59.4646 60.6573 60.0609 60.061C60.6572 59.4647 60.9922 58.6559 60.9922 57.8126V30.9298H64.75C65.1333 30.9298 65.5009 31.0821 65.772 31.3531C66.043 31.6241 66.1953 31.9918 66.1953 32.3751V64.7501Z" fill="#FF9C26"/>
<path d="M25.4374 25.4377C25.6663 25.4327 25.8851 25.3419 26.0502 25.1833L32.583 18.6389C32.6648 18.5592 32.7299 18.4639 32.7743 18.3586C32.8187 18.2534 32.8415 18.1403 32.8415 18.0261C32.8415 17.9119 32.8187 17.7988 32.7743 17.6935C32.7299 17.5883 32.6648 17.493 32.583 17.4133C32.4204 17.2509 32.2 17.1597 31.9702 17.1597C31.7404 17.1597 31.52 17.2509 31.3574 17.4133L25.4374 23.3564L21.9687 19.8877C21.7998 19.7917 21.6036 19.7551 21.4115 19.7839C21.2194 19.8127 21.0425 19.9051 20.9093 20.0464C20.776 20.1877 20.694 20.3697 20.6764 20.5631C20.6588 20.7566 20.7067 20.9503 20.8124 21.1133L24.9055 25.2064C25.051 25.3422 25.2388 25.4239 25.4374 25.4377Z" fill="#FF9C26"/>
<path d="M53.1875 54.0547H46.25C46.02 54.0547 45.7994 53.9633 45.6368 53.8007C45.4742 53.6381 45.3828 53.4175 45.3828 53.1875C45.3828 52.9575 45.4742 52.7369 45.6368 52.5743C45.7994 52.4117 46.02 52.3203 46.25 52.3203H53.1875C53.4175 52.3203 53.6381 52.4117 53.8007 52.5743C53.9633 52.7369 54.0547 52.9575 54.0547 53.1875C54.0547 53.4175 53.9633 53.6381 53.8007 53.8007C53.6381 53.9633 53.4175 54.0547 53.1875 54.0547Z" fill="#FF9C26"/>
<path d="M41.625 54.0547H32.375C32.145 54.0547 31.9244 53.9633 31.7618 53.8007C31.5992 53.6381 31.5078 53.4175 31.5078 53.1875C31.5078 52.9575 31.5992 52.7369 31.7618 52.5743C31.9244 52.4117 32.145 52.3203 32.375 52.3203H41.625C41.855 52.3203 42.0756 52.4117 42.2382 52.5743C42.4008 52.7369 42.4922 52.9575 42.4922 53.1875C42.4922 53.4175 42.4008 53.6381 42.2382 53.8007C42.0756 53.9633 41.855 54.0547 41.625 54.0547Z" fill="#FF9C26"/>
</svg>
