<svg width="84" height="72" viewBox="0 0 84 72" fill="none" xmlns="http://www.w3.org/2000/svg">
<circle cx="36" cy="36" r="36" fill="#FF9C26" fill-opacity="0.15"/>
<g clip-path="url(#clip0_161_538)">
<path fill-rule="evenodd" clip-rule="evenodd" d="M28.2188 32.8106C27.6434 32.8937 26.9084 33.0491 26.1712 33.3444C24.4475 34.0334 22.75 35.4291 22.75 38.1875C22.75 40.9459 24.4475 42.3416 26.1712 43.0306C26.9084 43.3259 27.6434 43.4813 28.2188 43.5644V43.7853C26.6241 44.1069 23.8438 45.2269 23.8438 49.125C23.8438 53.1828 26.8559 54.2306 28.4091 54.4997C29.2994 58.9184 33.2062 62.25 37.8853 62.25H38.1128C38.2441 64.1094 38.7166 67.9397 40.4338 70.5122C40.7684 71.0153 41.4488 71.1509 41.9497 70.8163C42.4528 70.4816 42.5884 69.8012 42.2537 69.3003C40.8056 67.1259 40.4031 63.9169 40.2916 62.25H45.2113C46.2591 63.8381 47.1319 64.9253 47.2106 65.0237C47.1975 65.0106 51.4084 70.5669 51.4084 70.5669C51.7738 71.0481 52.4606 71.1422 52.9419 70.7791C53.4231 70.4138 53.5172 69.7269 53.1541 69.2456L48.9103 63.6478C48.9103 63.6478 45.7581 59.7912 44.2619 55.88C43.8003 54.6747 43.4919 53.4672 43.5356 52.3822C43.5706 51.4853 43.8594 50.6825 44.5834 50.1006C46.3072 48.7116 48.0331 49.0156 49.4813 49.8491C51.9838 51.2884 53.7622 54.1737 53.7622 54.1737C53.7775 54.2 53.7928 54.2219 53.8103 54.2459L58.4697 60.5831L58.87 62.3988C58.9991 62.9894 59.5831 63.3634 60.1716 63.2344C60.7622 63.1031 61.1362 62.5212 61.005 61.9306L60.7666 60.8391C63.5491 59.1416 65.4062 56.0769 65.4062 52.5834V42.9956C67.5806 46.3075 70.3784 50.8356 70.8816 55.2631L73.0734 70.0659C73.1631 70.6631 73.7187 71.0766 74.3159 70.9891C74.9131 70.8994 75.3266 70.3438 75.2391 69.7466L73.0538 54.9962C72.3341 48.7466 67.3772 42.2606 65.4062 38.9816V10.6666C65.4062 5.33125 61.075 1 55.7397 1H37.8853C32.55 1 28.2188 5.33125 28.2188 10.6666V32.8106ZM59.8828 58.8091C61.8931 57.4681 63.2188 55.18 63.2188 52.5834V10.6666C63.2188 6.53875 59.8675 3.1875 55.7397 3.1875H37.8853C33.7575 3.1875 30.4062 6.53875 30.4062 10.6666V52.5834C30.4062 56.7113 33.7575 60.0625 37.8853 60.0625H43.8659C42.8772 58.3213 41.9541 56.3372 41.5581 54.4822C41.2278 52.9247 41.2606 51.4547 41.8053 50.2188H33.6875C33.0837 50.2188 32.5938 49.7287 32.5938 49.125V11.9375C32.5938 11.3337 33.0837 10.8438 33.6875 10.8438H59.9375C60.5412 10.8438 61.0312 11.3337 61.0312 11.9375V49.125C61.0312 49.7287 60.5412 50.2188 59.9375 50.2188H53.3838C54.6219 51.5028 55.4378 52.7366 55.5931 52.9772L59.8828 58.8091ZM28.2188 46.0341C27.265 46.3359 26.0312 47.1125 26.0312 49.125C26.0312 51.1375 27.265 51.9141 28.2188 52.2159V46.0341ZM50.7062 48.0312H58.8438V13.0312H34.7812V48.0312H43.6997C46.1278 46.36 48.5319 46.7778 50.5728 47.9525C50.6188 47.9788 50.6625 48.005 50.7062 48.0312ZM28.2188 35.0244C27.8469 35.0944 27.4159 35.2016 26.985 35.3744C25.9744 35.7791 24.9375 36.5709 24.9375 38.1875C24.9375 39.8041 25.9744 40.5959 26.985 41.0006C27.4159 41.1734 27.8469 41.2806 28.2188 41.3506V35.0244ZM36.9688 38.1875C36.9688 38.7912 37.4587 39.2812 38.0625 39.2812H55.5625C56.1662 39.2812 56.6562 38.7912 56.6562 38.1875V26.1562C56.6562 25.5525 56.1662 25.0625 55.5625 25.0625H51.975L51.1306 22.5294C50.9819 22.0831 50.5641 21.7812 50.0938 21.7812H43.5312C43.0609 21.7812 42.6431 22.0831 42.4944 22.5294L41.65 25.0625H38.0625C37.4587 25.0625 36.9688 25.5525 36.9688 26.1562V38.1875ZM39.1562 37.0938V27.25H42.4375C42.9078 27.25 43.3256 26.9481 43.4744 26.5019L44.3188 23.9688H49.3062L50.1506 26.5019C50.2994 26.9481 50.7172 27.25 51.1875 27.25H54.4688V37.0938H39.1562ZM46.8125 27.25C44.3975 27.25 42.4375 29.21 42.4375 31.625C42.4375 34.04 44.3975 36 46.8125 36C49.2275 36 51.1875 34.04 51.1875 31.625C51.1875 29.21 49.2275 27.25 46.8125 27.25ZM46.8125 29.4375C48.02 29.4375 49 30.4175 49 31.625C49 32.8325 48.02 33.8125 46.8125 33.8125C45.605 33.8125 44.625 32.8325 44.625 31.625C44.625 30.4175 45.605 29.4375 46.8125 29.4375ZM53.375 8.65625H54.4688C55.0725 8.65625 55.5625 8.16625 55.5625 7.5625C55.5625 6.95875 55.0725 6.46875 54.4688 6.46875H53.375C52.7712 6.46875 52.2812 6.95875 52.2812 7.5625C52.2812 8.16625 52.7712 8.65625 53.375 8.65625ZM44.625 8.65625H49C49.6038 8.65625 50.0938 8.16625 50.0938 7.5625C50.0938 6.95875 49.6038 6.46875 49 6.46875H44.625C44.0212 6.46875 43.5312 6.95875 43.5312 7.5625C43.5312 8.16625 44.0212 8.65625 44.625 8.65625Z" fill="#137AA8"/>
</g>
<defs>
<clipPath id="clip0_161_538">
<rect width="70" height="70" fill="white" transform="translate(14 1)"/>
</clipPath>
</defs>
</svg>
