<svg width="89" height="72" viewBox="0 0 89 72" fill="none" xmlns="http://www.w3.org/2000/svg">
<circle cx="36" cy="36" r="36" fill="#FF9C26" fill-opacity="0.15"/>
<path d="M55.6006 19.4025C55.4545 18.8164 55.8112 18.2228 56.3973 18.0766C56.9835 17.9305 57.577 18.2872 57.7232 18.8733C58.0605 20.226 59.4569 20.674 60.5468 20.6493C61.5013 20.6264 62.3888 20.2987 62.808 19.8139C63.035 19.5515 63.1188 19.2486 63.0718 18.8607C62.9925 18.208 62.6005 17.4092 60.2536 17.0237C56.8277 16.4613 56.028 14.6797 55.9603 13.2842C55.8665 11.3536 57.2047 9.73869 59.2901 9.26578C59.3021 9.26304 59.3142 9.26031 59.3263 9.25771V8.57384C59.3263 7.96982 59.8161 7.48009 60.4201 7.48009C61.0241 7.48009 61.5138 7.96982 61.5138 8.57384V9.24814C62.8842 9.53183 64.1974 10.3851 64.8774 12.0047C65.1112 12.5617 64.8494 13.2027 64.2924 13.4365C63.7354 13.6706 63.0943 13.4084 62.8605 12.8515C62.2904 11.4939 60.8994 11.1439 59.7741 11.3991C58.9539 11.5851 58.0953 12.1503 58.1454 13.1783C58.1625 13.5319 58.208 14.4712 60.6081 14.8652C63.4397 15.3301 64.9992 16.5857 65.2434 18.597C65.3649 19.5982 65.0951 20.5139 64.4627 21.2448C63.7962 22.0153 62.732 22.551 61.514 22.751V23.3995C61.514 24.0035 61.0243 24.4932 60.4202 24.4932C59.8162 24.4932 59.3265 24.0035 59.3265 23.3995V22.7334C57.4645 22.3777 56.0332 21.1371 55.6006 19.4025ZM25.5185 49.3679C24.8416 49.4668 24.3732 50.0957 24.4721 50.7725C24.5711 51.4494 25.2 51.9178 25.8769 51.8189C26.5538 51.72 27.0222 51.0911 26.9232 50.4142C26.8242 49.7374 26.1953 49.2689 25.5185 49.3679ZM85.8503 50.4374L63.4125 64.2538C61.8722 65.2021 60.2354 65.6776 58.5234 65.6776C57.6647 65.6776 56.7872 65.5579 55.8931 65.3184L40.0558 61.0748L37.9549 62.2878L39.2119 64.5088C39.5943 65.1844 39.6901 65.9704 39.4819 66.722C39.2737 67.4735 38.7868 68.0979 38.111 68.4803L34.6419 70.4437C34.1999 70.6939 33.7107 70.8213 33.2148 70.8213C32.9526 70.8213 32.6886 70.7857 32.4287 70.7136C31.6772 70.5054 31.0528 70.0185 30.6704 69.3427L20.4714 51.3218C20.089 50.6462 19.9932 49.8602 20.2014 49.1086C20.4096 48.3571 20.8965 47.7327 21.5721 47.3503L25.0413 45.387C26.4397 44.5955 28.2213 45.0894 29.0128 46.4877L29.6794 47.6657L38.8794 42.3357C41.2595 40.9568 44.1197 39.6856 47.2855 40.7125C47.7178 40.8526 48.1931 41.0173 48.695 41.1955C48.0246 40.4915 47.6117 39.5402 47.6117 38.4938V36.4177C47.6117 35.3074 48.0763 34.3042 48.8205 33.59C48.0763 32.8759 47.6117 31.8726 47.6117 30.7622V28.6861C47.6117 26.6627 49.1524 24.9924 51.1223 24.7864C48.9476 22.4899 47.6117 19.3913 47.6117 15.9865C47.6117 8.92412 53.3575 3.17838 60.4198 3.17838C67.4823 3.17838 73.228 8.92412 73.228 15.9865C73.228 19.3913 71.8922 22.4899 69.7175 24.7864C71.6874 24.9925 73.228 26.6627 73.228 28.6861V30.7622C73.228 31.8725 72.7635 32.8757 72.0193 33.59C72.7635 34.304 73.228 35.3073 73.228 36.4177V38.4938C73.228 39.6041 72.7635 40.6073 72.0193 41.3215C72.7635 42.0356 73.228 43.0389 73.228 44.1493V45.7179L76.8994 43.5796C83.9088 39.4972 86.5639 42.7034 87.2105 43.7832C88.5426 46.0074 87.8943 49.179 85.8503 50.4374ZM60.4198 26.6075C66.276 26.6075 71.0405 21.8431 71.0405 15.9867C71.0405 10.1305 66.2762 5.36615 60.4198 5.36615C54.5636 5.36615 49.7992 10.1305 49.7992 15.9867C49.7992 21.8429 54.5636 26.6075 60.4198 26.6075ZM49.7994 30.7626C49.7994 31.7187 50.5772 32.4966 51.5334 32.4966H69.3067C70.2628 32.4966 71.0407 31.7188 71.0407 30.7626V28.6865C71.0407 27.7305 70.2629 26.9525 69.3067 26.9525H67.0318C65.1005 28.1213 62.8374 28.795 60.42 28.795C58.0025 28.795 55.7394 28.1215 53.8081 26.9525H51.5334C50.5773 26.9525 49.7994 27.7303 49.7994 28.6865V30.7626ZM49.7994 38.4939C49.7994 39.45 50.5772 40.2279 51.5334 40.2279H69.3067C70.2628 40.2279 71.0407 39.4501 71.0407 38.4939V36.4178C71.0407 35.4618 70.2629 34.6838 69.3067 34.6838H51.5332C50.5772 34.6838 49.7992 35.4616 49.7992 36.4178V38.4939H49.7994ZM69.3065 47.9594C69.3327 47.9594 69.3588 47.9576 69.3849 47.9564L70.7693 47.15C70.9466 46.873 71.0405 46.5569 71.0405 46.2254V44.1493C71.0405 43.1932 70.2628 42.4153 69.3065 42.4153H52.1016C54.4702 43.2438 57.1487 44.0954 59.855 44.5835C59.9034 44.5923 59.9514 44.6043 59.9982 44.6195C61.6343 45.1499 62.8034 46.4467 63.1951 47.9592H69.3065V47.9594ZM63.2062 50.1469C63.1999 50.1722 63.1947 50.1973 63.1878 50.2226C63.0559 50.7149 62.8648 51.1589 62.6211 51.5504C63.2812 51.3985 63.9135 51.143 64.5351 50.7811L65.6239 50.1469H63.2062ZM37.3081 65.5863L27.1091 47.5654C26.9772 47.3322 26.7252 47.1995 26.4696 47.1995C26.3494 47.1995 26.2284 47.2287 26.1187 47.2908L22.6498 49.2541C22.4826 49.3487 22.3618 49.5046 22.3095 49.693C22.2572 49.8814 22.2806 50.0773 22.3752 50.2444L32.5742 68.2653C32.6688 68.4325 32.8246 68.5533 33.013 68.6055C33.2016 68.6578 33.3974 68.6345 33.5644 68.5398L37.0335 66.5764C37.2007 66.4818 37.3216 66.3259 37.3738 66.1375C37.4261 65.9491 37.4027 65.7535 37.3081 65.5863ZM85.3338 44.9073C84.3027 43.1856 81.5611 43.396 78.0002 45.4699L65.6361 52.6714C63.7392 53.7759 61.6999 54.134 59.401 53.7664L57.6792 53.4907C57.6433 53.485 53.9841 52.5109 52.2382 52.041C51.3509 51.8021 50.4637 51.5634 49.5764 51.3258C48.9929 51.1694 48.6466 50.5697 48.803 49.9862C48.9594 49.4027 49.5596 49.0568 50.1425 49.2128C51.0307 49.4508 51.9185 49.6897 52.8065 49.9287C54.5322 50.393 56.3157 50.873 58.0715 51.3374C59.2054 51.5013 60.6256 51.3339 61.075 49.6565C61.4053 48.4241 60.6816 47.1741 59.3877 46.7221C55.6802 46.0442 52.1065 44.7522 49.2312 43.7128C48.2283 43.3502 47.3622 43.0371 46.6107 42.7933C44.2681 42.0333 42.0374 43.0342 39.9759 44.2286L30.7569 49.5696L36.8773 60.384L39.3542 58.9539C39.6054 58.8088 39.9039 58.7696 40.1842 58.8447L56.4591 63.2056C58.5317 63.7611 60.4852 63.4871 62.2654 62.3911L84.7033 48.5747C85.7265 47.9449 86.0446 46.094 85.3338 44.9073Z" fill="#137AA8"/>
</svg>
