<svg width="95" height="77" viewBox="0 0 95 77" fill="none" xmlns="http://www.w3.org/2000/svg">
<circle cx="36" cy="38" r="36" fill="#FF9C26" fill-opacity="0.15"/>
<path d="M85.6412 15.3901C89.8971 11.9316 87.3028 4.74701 81.7655 4.81255C76.2283 4.751 73.633 11.9273 77.8902 15.3902C75.1927 16.7956 73.3438 19.6136 73.3438 22.8594C73.3438 24.8497 74.9628 26.4687 76.9531 26.4687H86.5781C92.9758 25.8357 89.7114 17.0036 85.6412 15.3901ZM78.1563 10.8281C78.281 6.0687 85.251 6.06966 85.375 10.8282C85.2503 15.5875 78.2803 15.5866 78.1563 10.8281ZM86.5781 24.0625H76.9531C76.2899 24.0625 75.75 23.5232 75.75 22.8594C75.75 19.5425 78.4488 16.8437 81.7656 16.8437C85.0825 16.8437 87.7813 19.5425 87.7813 22.8594C87.7813 23.5232 87.2414 24.0625 86.5781 24.0625Z" fill="#137AA8"/>
<path d="M85.6412 61.1089C89.8971 57.6503 87.3028 50.4658 81.7655 50.5313C76.2283 50.4698 73.633 57.6461 77.8902 61.1089C75.1927 62.5143 73.3438 65.3324 73.3438 68.5781C73.3438 70.5685 74.9628 72.1875 76.9531 72.1875H86.5781C92.9758 71.5544 89.7114 62.7223 85.6412 61.1089ZM78.1563 56.5469C78.281 51.7875 85.251 51.7884 85.375 56.547C85.2503 61.3063 78.2803 61.3053 78.1563 56.5469ZM86.5781 69.7813H76.9531C76.2899 69.7813 75.75 69.242 75.75 68.5781C75.75 65.2613 78.4488 62.5625 81.7656 62.5625C85.0825 62.5625 87.7813 65.2613 87.7813 68.5781C87.7813 69.242 87.2414 69.7813 86.5781 69.7813Z" fill="#137AA8"/>
<path d="M22.8125 22.8594C22.8125 24.8497 24.4316 26.4688 26.4219 26.4688H36.0469C38.0372 26.4688 39.6563 24.8497 39.6563 22.8594C39.6563 19.6136 37.8073 16.7956 35.11 15.3901C36.4078 14.2859 37.25 12.6616 37.25 10.8281C36.9689 2.86995 25.5013 2.86537 25.2188 10.8282C25.2188 12.6616 26.061 14.2859 27.3588 15.3901C24.6615 16.7956 22.8125 19.6136 22.8125 22.8594ZM27.625 10.8281C27.7498 6.06871 34.7197 6.06967 34.8438 10.8282C34.719 15.5875 27.7491 15.5866 27.625 10.8281ZM31.2344 16.8438C34.5512 16.8438 37.25 19.5426 37.25 22.8594C37.25 23.5232 36.7101 24.0625 36.0469 24.0625H26.4219C25.7586 24.0625 25.2188 23.5232 25.2188 22.8594C25.2188 19.5426 27.9176 16.8438 31.2344 16.8438Z" fill="#137AA8"/>
<path d="M26.422 72.1875H36.047C38.0373 72.1875 39.6564 70.5685 39.6564 68.5781C39.6564 65.3324 37.8074 62.5143 35.1101 61.1089C39.366 57.6503 36.7717 50.4658 31.2343 50.5313C25.6972 50.4698 23.1019 57.6461 27.3591 61.1089C23.2895 62.7209 20.0239 71.5565 26.422 72.1875ZM27.6251 56.5469C27.7499 51.7875 34.7198 51.7884 34.8439 56.547C34.7191 61.3063 27.7492 61.3053 27.6251 56.5469ZM31.2345 62.5625C34.5513 62.5625 37.2501 65.2613 37.2501 68.5781C37.2501 69.242 36.7103 69.7813 36.047 69.7813H26.422C25.7588 69.7813 25.2189 69.242 25.2189 68.5781C25.2189 65.2613 27.9177 62.5625 31.2345 62.5625Z" fill="#137AA8"/>
<path d="M68.6736 63.3474C61.1446 67.1097 51.8557 67.1097 44.3267 63.3473C42.9047 62.6745 41.8518 64.7816 43.2635 65.5069C47.4039 67.5442 51.8574 68.5781 56.5002 68.5781C61.1429 68.5781 65.5965 67.5442 69.7369 65.5069C70.3326 65.2131 70.5781 64.4917 70.2844 63.896C69.9913 63.3004 69.271 63.0548 68.6736 63.3474Z" fill="#137AA8"/>
<path d="M41.6549 14.9545C50.8286 9.83029 61.5305 9.19397 70.7244 14.782C71.5059 15.2546 72.5771 14.6858 72.556 13.7513C72.5452 13.3203 72.3032 12.9044 71.9269 12.6963C62.657 7.01169 50.2928 7.02102 41.0316 12.7211C39.9961 13.303 40.4799 14.9994 41.6549 14.9545Z" fill="#137AA8"/>
<path d="M84.0443 47.1909C84.6675 47.3672 85.3492 46.9982 85.5242 46.352C86.8978 41.4189 86.9227 35.9297 85.6252 30.9781C85.2043 29.4627 82.923 30.042 83.2965 31.5844C84.4879 36.1288 84.466 41.1835 83.2049 45.7105C83.028 46.3509 83.4034 47.0135 84.0443 47.1909Z" fill="#137AA8"/>
<path d="M28.8421 30.1169C28.1953 29.9536 27.542 30.3343 27.3746 30.9781C26.0771 35.9297 26.1019 41.4189 27.4756 46.352C27.9282 47.8712 30.1905 47.2382 29.7949 45.7105C28.5338 41.1835 28.5119 36.1288 29.7033 31.5844C29.8707 30.9417 29.4853 30.2849 28.8421 30.1169Z" fill="#137AA8"/>
<path d="M60.4102 21.6562C54.8064 21.6562 50.0377 25.2448 48.2455 30.2394C39.954 33.0567 36.8705 44.0133 42.6355 50.6629C42.6353 50.6628 40.0087 53.29 40.0087 53.29C39.6645 53.6342 39.5617 54.1512 39.7479 54.6012C39.9341 55.0512 40.373 55.3438 40.8594 55.3438H52.5898C54.1973 55.494 61.35 54.0146 59.9385 51.6075C59.5765 51.0517 58.8316 50.8943 58.2741 51.2562C56.5834 52.3559 54.6184 52.9375 52.5898 52.9375H43.7638C44.2516 52.3545 45.5832 51.4426 45.5033 50.6969C45.5027 50.3773 45.3752 50.0718 45.1484 49.8463C43.1587 47.8677 42.0625 45.2265 42.0625 42.4102C42.0625 38.5366 44.2444 34.9959 47.5577 33.1764C46.6697 40.7531 52.7806 47.5721 60.4102 47.5234C60.4102 47.5234 72.1406 47.5235 72.1406 47.5235C73.175 47.5584 73.7549 46.1801 72.9912 45.4697C72.9913 45.4697 70.3677 42.8461 70.3677 42.8461C77.3479 34.5988 71.246 21.5658 60.4102 21.6562ZM67.8545 43.7355L69.2362 45.1172H60.4102C46.4466 44.5407 46.446 24.6391 60.4102 24.0625C66.2149 24.0625 70.9375 28.7845 70.9375 34.5898C70.9375 37.4014 69.8425 40.045 67.8545 42.0342C67.3845 42.5041 67.3845 43.2655 67.8545 43.7355Z" fill="#137AA8"/>
<path d="M60.4101 33.3867C58.8287 33.4135 58.8289 35.7663 60.4101 35.793C61.9915 35.7661 61.9913 33.4133 60.4101 33.3867Z" fill="#137AA8"/>
<path d="M55.5976 33.3867C54.0162 33.4135 54.0164 35.7663 55.5976 35.793C57.179 35.7661 57.1788 33.4133 55.5976 33.3867Z" fill="#137AA8"/>
<path d="M65.2226 33.3867C63.6412 33.4135 63.6414 35.7663 65.2226 35.793C66.804 35.7661 66.8038 33.4133 65.2226 33.3867Z" fill="#137AA8"/>
</svg>
